<svg width="92" height="92" fill="none" xmlns="http://www.w3.org/2000/svg"><circle cx="45.596" cy="45.596" r="45.596" fill="#000"/><path d="M45.084 44.886c-2.959 0-5.38-.947-7.262-2.841-1.883-1.895-2.825-4.33-2.825-7.306 0-2.977.942-5.412 2.825-7.306 1.882-1.895 4.303-2.842 7.262-2.842 2.958 0 5.379.947 7.262 2.842 1.883 1.894 2.824 4.33 2.824 7.306s-.942 5.412-2.824 7.306c-1.883 1.894-4.304 2.84-7.262 2.84ZM23.566 66.6v-6.359c0-1.714.426-3.18 1.278-4.397a8.214 8.214 0 0 1 3.295-2.774c3.003-1.353 5.884-2.367 8.64-3.044a34.729 34.729 0 0 1 8.305-1.014c2.779 0 5.536.349 8.27 1.048 2.735.7 5.602 1.707 8.602 3.023 1.403.638 2.528 1.561 3.375 2.772.847 1.21 1.27 2.672 1.27 4.386v6.36H23.567Zm4.035-4.059h34.965v-2.3c0-.721-.213-1.41-.638-2.063-.426-.654-.953-1.139-1.58-1.455-2.87-1.398-5.492-2.356-7.868-2.875a34.584 34.584 0 0 0-7.396-.778c-2.556 0-5.043.26-7.464.778-2.42.519-5.043 1.477-7.867 2.875-.628.316-1.143.801-1.547 1.455a3.87 3.87 0 0 0-.605 2.063v2.3Zm17.483-21.715c1.748 0 3.194-.575 4.337-1.725 1.143-1.15 1.714-2.604 1.714-4.363 0-1.76-.571-3.214-1.714-4.364s-2.589-1.725-4.337-1.725c-1.749 0-3.194.575-4.337 1.725-1.144 1.15-1.715 2.605-1.715 4.364s.572 3.213 1.715 4.363c1.143 1.15 2.588 1.725 4.337 1.725Z" fill="#fff"/></svg>